
<svg width="1440" height="900" viewBox="0 0 1440 900" fill="none" xmlns="http://www.w3.org/2000/svg">
  <defs>
    <linearGradient id="skyGradient" x1="0%" y1="0%" x2="0%" y2="100%">
      <stop offset="0%" stop-color="#86C1B2" />
      <stop offset="100%" stop-color="#EDF5E1" />
    </linearGradient>
    <filter id="cloudBlur" x="-50%" y="-50%" width="200%" height="200%">
      <feGaussianBlur in="SourceGraphic" stdDeviation="20" />
    </filter>
  </defs>
  
  <!-- Sky background -->
  <rect width="1440" height="900" fill="url(#skyGradient)" />
  
  <!-- Clouds -->
  <g opacity="0.7">
    <ellipse cx="200" cy="250" rx="160" ry="80" fill="white" filter="url(#cloudBlur)" />
    <ellipse cx="500" cy="180" rx="200" ry="90" fill="white" filter="url(#cloudBlur)" />
    <ellipse cx="900" cy="300" rx="180" ry="70" fill="white" filter="url(#cloudBlur)" />
    <ellipse cx="1200" cy="220" rx="220" ry="100" fill="white" filter="url(#cloudBlur)" />
    <ellipse cx="350" cy="450" rx="150" ry="65" fill="white" filter="url(#cloudBlur)" />
    <ellipse cx="700" cy="500" rx="130" ry="55" fill="white" filter="url(#cloudBlur)" />
    <ellipse cx="1100" cy="400" rx="170" ry="75" fill="white" filter="url(#cloudBlur)" />
  </g>
  
  <!-- Distant hills -->
  <path d="M0,900 Q360,750 720,830 Q1080,750 1440,850 L1440,900 L0,900 Z" fill="#588157" opacity="0.3" />
  <path d="M0,900 Q240,820 480,860 Q720,800 960,870 Q1200,830 1440,880 L1440,900 L0,900 Z" fill="#86C1B2" opacity="0.5" />
</svg>
